<?xml version="1.0" standalone="no"?>
<!DOCTYPE svg PUBLIC "-//W3C//DTD SVG 20010904//EN"
 "http://www.w3.org/TR/2001/REC-SVG-20010904/DTD/svg10.dtd">
<svg version="1.0" xmlns="http://www.w3.org/2000/svg"
 width="4623.000000pt" height="1023.000000pt" viewBox="0 0 4623.000000 1023.000000"
 preserveAspectRatio="xMidYMid meet">

<g transform="translate(0.000000,1023.000000) scale(0.100000,-0.100000)"
fill="#000000" stroke="none">
<path d="M10 9896 l0 -335 1053 -4 c1155 -4 1150 -4 1472 -68 549 -109 1049
-343 1492 -695 52 -42 96 -74 97 -72 1 1 33 48 71 103 90 129 180 248 272 357
l74 87 -93 74 c-534 424 -1175 711 -1833 822 -345 58 -351 58 -1522 62 l-1083
4 0 -335z"/>
<path d="M18890 8980 c-1199 -107 -2114 -865 -2375 -1965 -83 -350 -95 -756
-34 -1125 118 -708 509 -1310 1104 -1700 243 -159 604 -309 895 -373 751 -166
1553 -55 2165 298 686 396 1121 1047 1242 1860 25 171 25 611 0 780 -73 494
-250 908 -542 1270 -96 119 -306 323 -425 411 -416 312 -915 497 -1465 544
-135 11 -437 11 -565 0z m605 -950 c475 -101 841 -383 1058 -817 194 -385 243
-890 132 -1336 -151 -598 -571 -1027 -1140 -1162 -428 -102 -871 -25 -1229
212 -133 88 -319 273 -405 403 -202 303 -301 646 -301 1038 0 227 30 423 95
616 198 592 661 982 1265 1066 114 15 412 4 525 -20z"/>
<path d="M34450 8983 c-502 -37 -978 -196 -1370 -458 -608 -405 -992 -1030
-1097 -1785 -27 -193 -24 -588 6 -780 65 -420 185 -738 406 -1070 244 -367
571 -650 989 -856 502 -247 1109 -342 1706 -269 927 115 1677 621 2063 1393
135 271 216 539 259 862 17 128 17 576 -1 700 -68 492 -228 886 -514 1265 -91
120 -335 359 -467 457 -421 312 -904 490 -1455 538 -110 9 -418 11 -525 3z
m503 -952 c127 -26 281 -78 387 -131 287 -144 543 -407 684 -703 260 -544 242
-1235 -46 -1749 -149 -266 -395 -500 -654 -623 -108 -52 -291 -110 -409 -131
-152 -28 -424 -25 -573 4 -332 66 -600 213 -822 449 -534 570 -602 1572 -153
2247 80 120 237 285 353 372 192 143 456 249 710 284 115 15 402 5 523 -19z"/>
<path d="M10 8556 l0 -335 1013 -4 c1119 -4 1088 -3 1362 -72 387 -97 720
-291 1014 -589 63 -64 115 -115 116 -114 1 2 16 50 34 108 31 97 145 390 205
522 l25 57 -57 51 c-91 82 -269 213 -388 285 -409 249 -830 383 -1309 415 -83
5 -566 10 -1082 10 l-933 0 0 -334z"/>
<path d="M7827 8865 c-1164 -141 -2168 -1067 -2396 -2212 -58 -286 -54 -89
-58 -3476 -2 -1731 -1 -3147 3 -3147 37 0 451 108 597 156 l77 26 0 3001 c0
3215 -2 3063 49 3292 119 546 452 1030 925 1347 204 137 471 253 701 306 244
56 219 55 1323 59 l1022 4 0 330 0 329 -1067 -1 c-813 -1 -1094 -4 -1176 -14z"/>
<path d="M12090 8405 l0 -465 840 0 840 0 0 -2040 0 -2040 575 0 575 0 0 2040
0 2040 835 0 835 0 0 465 0 465 -2250 0 -2250 0 0 -465z"/>
<path d="M22340 6365 l0 -2505 575 0 575 0 2 1065 3 1064 476 -607 c262 -334
520 -656 572 -717 191 -223 415 -419 603 -531 312 -186 624 -256 1202 -271
l252 -6 0 516 0 517 -73 0 c-63 0 -77 -3 -93 -21 -86 -97 -352 -41 -586 122
-175 123 -300 246 -507 503 l-112 139 128 33 c659 165 1121 621 1255 1236 14
67 21 147 25 283 4 163 2 207 -15 310 -125 729 -762 1257 -1638 1360 -108 13
-328 15 -1386 15 l-1258 0 0 -2505z m2594 1547 c347 -100 556 -353 556 -674 0
-475 -410 -781 -926 -693 -355 61 -663 279 -866 613 -127 210 -208 485 -208
710 l0 73 683 -3 c675 -3 683 -4 761 -26z"/>
<path d="M27060 6364 l0 -2505 1063 4 c1151 4 1130 3 1422 62 522 105 985 342
1339 685 147 143 224 235 332 396 235 353 367 755 393 1204 27 453 -54 867
-244 1255 -388 792 -1189 1306 -2175 1395 -70 6 -512 10 -1122 10 l-1008 0 0
-2506z m2165 1547 c219 -49 428 -138 590 -253 111 -78 261 -227 338 -335 334
-468 390 -1137 141 -1671 -74 -159 -163 -284 -298 -418 -220 -218 -450 -341
-770 -411 -118 -26 -130 -26 -568 -30 l-448 -5 0 1577 0 1576 458 -4 c427 -3
464 -5 557 -26z"/>
<path d="M42103 7572 c-375 -713 -709 -1355 -741 -1427 -300 -660 -392 -1238
-267 -1670 142 -489 552 -761 1104 -731 387 20 639 92 1226 348 287 126 408
171 554 210 99 26 135 31 246 32 110 1 141 -3 205 -22 140 -44 225 -96 336
-207 82 -81 173 -198 186 -237 2 -5 289 -7 639 -6 l635 3 -1230 2502 -1231
2503 -490 0 -490 -1 -682 -1297z m1656 -1277 l471 -950 -108 -21 c-209 -42
-412 -119 -812 -309 -256 -122 -396 -183 -490 -213 -273 -89 -445 -69 -512 61
-30 58 -36 187 -13 298 54 267 162 515 569 1309 372 723 408 792 417 783 4 -4
219 -435 478 -958z"/>
<path d="M37000 8833 c0 -3 407 -818 905 -1810 498 -992 905 -1810 905 -1818
0 -8 -153 -321 -340 -695 l-340 -680 652 2 652 3 1254 2503 1254 2502 -652 -2
-651 -3 -586 -1164 -586 -1165 -584 1167 -583 1167 -650 0 c-358 0 -650 -3
-650 -7z"/>
<path d="M11 7053 c1 -882 16 -1702 34 -1868 36 -337 78 -580 157 -890 378
-1497 1361 -2803 2708 -3600 113 -67 430 -235 443 -235 4 0 7 1320 7 2934 0
2603 -2 2943 -15 3022 -91 517 -532 978 -1052 1099 -132 31 -285 35 -1280 35
l-1003 0 1 -497z"/>
<path d="M7935 7539 c-557 -50 -1065 -511 -1197 -1084 l-22 -100 -3 -2953 -3
-2952 82 41 c1058 529 1923 1348 2506 2369 98 173 268 524 342 710 174 433
302 921 364 1382 51 378 54 463 61 1691 l6 907 -1023 -1 c-563 -1 -1063 -5
-1113 -10z"/>
<path d="M20739 3285 c-15 -8 -68 -61 -118 -117 l-91 -103 140 -3 c92 -2 148
1 162 9 20 11 282 202 303 220 5 5 -72 9 -180 9 -145 -1 -196 -4 -216 -15z"/>
<path d="M38762 2974 c-180 -48 -303 -178 -334 -354 -21 -121 22 -270 101
-349 53 -53 129 -90 276 -136 205 -64 245 -95 245 -193 0 -107 -63 -161 -187
-162 -74 0 -141 23 -233 80 -104 64 -132 54 -214 -79 -44 -72 -45 -76 -28 -94
32 -37 132 -95 216 -126 256 -92 501 -48 645 115 80 91 117 207 109 345 -5
103 -35 174 -99 237 -54 55 -119 87 -289 147 -146 51 -189 72 -220 112 -41 52
-15 149 51 188 26 16 52 20 114 20 74 0 86 -3 164 -42 90 -46 139 -54 163 -25
8 9 35 54 59 100 l44 82 -30 25 c-48 38 -147 84 -231 105 -92 24 -243 26 -322
4z"/>
<path d="M40014 2975 c-143 -31 -288 -115 -383 -222 -60 -67 -132 -208 -157
-308 -21 -85 -24 -273 -5 -360 71 -325 325 -544 664 -571 410 -32 749 250 786
655 36 396 -179 714 -540 801 -99 23 -269 26 -365 5z m246 -265 c131 -21 224
-92 280 -213 55 -117 64 -300 21 -436 -57 -181 -207 -282 -401 -268 -189 13
-310 119 -355 309 -17 75 -19 201 -4 284 31 173 155 301 313 324 74 11 75 11
146 0z"/>
<path d="M45105 2974 c-154 -34 -315 -134 -402 -248 -102 -136 -153 -291 -153
-470 0 -296 134 -533 371 -656 117 -61 210 -82 359 -83 138 -1 219 15 327 63
319 144 479 511 383 883 -59 233 -234 418 -465 494 -103 33 -309 42 -420 17z
m332 -286 c68 -25 120 -67 165 -134 52 -76 69 -140 75 -269 6 -133 -6 -200
-53 -294 -54 -109 -132 -168 -252 -191 -136 -27 -281 11 -366 96 -171 171
-162 576 15 728 107 91 273 117 416 64z"/>
<path d="M17717 2965 c-266 -51 -463 -221 -544 -470 -38 -117 -44 -325 -14
-446 34 -138 91 -240 191 -339 94 -94 172 -142 300 -182 66 -20 94 -23 235
-22 212 1 336 31 464 114 l51 32 0 309 0 309 -250 0 -250 0 0 -109 c0 -136 4
-141 123 -141 l78 0 -3 -112 -3 -111 -40 -15 c-27 -11 -78 -16 -160 -16 -110
-1 -125 1 -177 26 -185 86 -278 305 -237 558 22 141 102 256 218 313 64 31 70
32 192 32 l126 0 107 -53 c143 -71 148 -70 228 51 l60 92 -39 33 c-59 52 -150
98 -248 127 -114 34 -290 42 -408 20z"/>
<path d="M20580 2965 c-299 -60 -508 -271 -566 -572 -71 -372 121 -733 453
-848 141 -49 338 -57 478 -20 230 62 406 229 486 461 32 96 33 104 34 254 0
149 -2 158 -33 249 -57 164 -144 281 -272 366 -161 107 -385 149 -580 110z
m330 -298 c146 -69 222 -213 222 -422 0 -120 -13 -187 -54 -268 -37 -74 -90
-127 -164 -163 -55 -27 -67 -29 -179 -29 -111 0 -124 2 -177 28 -147 72 -218
211 -218 427 0 165 32 260 117 351 78 84 151 110 298 105 83 -2 109 -7 155
-29z"/>
<path d="M21946 2969 c-228 -47 -381 -244 -363 -465 9 -96 39 -173 92 -232 56
-62 129 -101 280 -147 213 -66 261 -107 253 -211 -8 -100 -65 -144 -184 -144
-84 0 -134 16 -228 72 -82 50 -127 55 -160 17 -39 -45 -108 -168 -101 -180 19
-29 161 -109 251 -139 93 -32 107 -34 229 -34 139 1 197 14 290 69 55 32 136
121 164 180 63 133 67 287 12 400 -55 110 -125 157 -360 240 -193 67 -231 97
-231 183 0 87 68 136 187 135 65 -1 81 -5 166 -47 104 -51 113 -53 144 -31 26
18 115 184 106 198 -15 24 -130 87 -204 111 -94 31 -256 43 -343 25z"/>
<path d="M24998 2970 c-295 -54 -499 -235 -580 -516 -19 -67 -23 -102 -22
-224 1 -128 4 -156 28 -235 41 -135 89 -218 176 -305 123 -123 254 -178 446
-187 208 -10 382 48 499 166 l59 61 -79 81 c-93 93 -99 94 -189 31 -75 -53
-124 -65 -243 -60 -77 3 -108 9 -142 27 -103 53 -184 166 -210 289 -16 75 -14
228 4 295 21 81 49 132 106 192 70 74 142 107 251 113 107 6 162 -7 250 -59
104 -61 118 -57 212 73 l56 77 -48 41 c-55 48 -162 102 -247 125 -70 19 -259
28 -327 15z"/>
<path d="M26272 2970 c-154 -28 -277 -93 -387 -204 -89 -90 -138 -172 -177
-296 -20 -65 -23 -95 -23 -230 0 -175 15 -244 83 -375 56 -107 183 -231 292
-283 133 -64 193 -77 355 -76 159 0 226 14 340 70 184 90 320 262 371 469 25
98 24 296 0 390 -40 152 -128 296 -233 381 -68 54 -193 117 -278 139 -72 19
-270 28 -343 15z m315 -304 c108 -49 183 -150 212 -284 26 -122 7 -311 -40
-404 -32 -63 -105 -135 -168 -164 -74 -35 -218 -45 -303 -20 -119 34 -210 129
-250 261 -31 99 -31 271 0 370 39 127 121 216 235 257 82 29 232 21 314 -16z"/>
<path d="M29585 2965 c-186 -35 -344 -133 -444 -276 -187 -266 -186 -639 4
-904 83 -117 190 -193 346 -246 89 -31 102 -33 239 -33 169 -1 229 12 360 75
109 54 236 177 292 284 68 132 83 199 83 380 -1 149 -3 166 -28 240 -16 44
-45 109 -64 145 -44 78 -165 202 -245 248 -152 90 -356 122 -543 87z m281
-280 c113 -33 196 -119 242 -248 22 -61 25 -90 26 -192 0 -143 -22 -230 -81
-314 -71 -101 -174 -151 -313 -151 -255 0 -399 165 -400 457 0 242 91 391 275
449 55 17 191 17 251 -1z"/>
<path d="M32310 2528 c0 -268 4 -480 11 -518 39 -246 187 -413 420 -476 87
-24 271 -24 359 0 199 53 332 178 398 371 l27 80 3 498 3 497 -165 0 -165 0
-3 -487 -3 -488 -24 -52 c-26 -59 -84 -117 -140 -141 -22 -9 -66 -15 -112 -15
-91 -1 -152 25 -203 85 -71 82 -70 78 -74 616 l-3 482 -164 0 -165 0 0 -452z"/>
<path d="M33747 2973 c-4 -3 -7 -330 -7 -725 l0 -718 430 0 430 0 0 135 0 135
-265 0 -265 0 0 590 0 590 -158 0 c-87 0 -162 -3 -165 -7z"/>
<path d="M34480 2845 l0 -135 200 0 200 0 0 -590 0 -590 165 0 165 0 0 590 0
590 200 0 200 0 0 135 0 135 -565 0 -565 0 0 -135z"/>
<path d="M35747 2973 c-4 -3 -7 -330 -7 -725 l0 -718 165 0 165 0 0 265 0 265
68 0 c39 0 75 -5 85 -12 9 -7 73 -114 142 -238 69 -124 137 -236 151 -250 24
-25 28 -25 205 -28 100 -2 179 0 177 5 -3 4 -75 126 -162 270 -114 190 -168
271 -198 296 l-41 34 48 24 c64 32 146 113 178 175 36 72 49 127 48 219 0 92
-29 187 -75 247 -64 85 -199 147 -361 167 -97 12 -577 15 -588 4z m597 -272
c24 -10 56 -36 72 -56 24 -32 29 -49 32 -110 5 -88 -18 -149 -69 -187 -52 -38
-93 -48 -205 -48 l-104 0 0 208 c0 115 3 212 8 217 14 15 221 -3 266 -24z"/>
<path d="M37202 2262 c-150 -394 -272 -721 -272 -725 0 -4 65 -7 145 -7 144 0
145 0 175 28 23 21 40 56 74 157 l43 130 273 0 273 0 33 -100 c76 -226 63
-215 264 -215 77 0 140 3 140 7 0 4 -122 331 -272 725 l-271 718 -167 0 -167
0 -271 -718z m536 114 c51 -156 92 -287 92 -290 0 -3 -86 -6 -191 -6 -161 0
-190 2 -187 14 9 42 184 566 188 566 3 0 47 -128 98 -284z"/>
<path d="M41087 2973 c-4 -3 -7 -330 -7 -725 l0 -718 145 0 145 0 0 456 0 456
335 -434 c184 -238 349 -443 366 -455 28 -21 44 -23 140 -23 l109 0 0 725 0
725 -145 0 -146 0 3 -455 c2 -250 1 -455 -2 -455 -3 0 -158 199 -345 442 -257
333 -348 444 -372 454 -33 14 -214 20 -226 7z"/>
<path d="M42587 2973 c-4 -3 -7 -330 -7 -725 l0 -718 165 0 165 0 0 725 0 725
-158 0 c-87 0 -162 -3 -165 -7z"/>
<path d="M43180 2255 l0 -726 353 4 c395 4 405 6 557 80 109 53 227 167 282
272 67 129 83 201 83 365 -1 164 -14 229 -71 346 -87 177 -240 298 -449 355
-73 20 -109 23 -417 27 l-338 4 0 -727z m702 436 c158 -61 241 -214 241 -441
0 -210 -75 -355 -221 -427 -54 -27 -65 -28 -224 -31 l-168 -4 0 467 0 467 158
-4 c132 -4 166 -8 214 -27z"/>
<path d="M13770 2241 l0 -721 336 0 c386 0 423 5 574 77 173 83 305 246 357
443 13 47 18 103 18 200 -1 157 -14 219 -77 349 -52 109 -167 228 -273 283
-155 80 -167 82 -572 86 l-363 3 0 -720z m617 460 c164 -24 274 -127 318 -298
20 -75 20 -251 0 -326 -43 -166 -146 -268 -300 -296 -32 -6 -112 -11 -177 -11
l-118 0 0 470 0 470 108 0 c59 0 135 -4 169 -9z"/>
<path d="M15250 2240 l0 -720 165 0 165 0 0 720 0 720 -165 0 -165 0 0 -720z"/>
<path d="M16005 2249 c-149 -391 -271 -715 -273 -720 -2 -5 64 -9 148 -9 l152
0 27 28 c20 19 39 65 69 160 l43 132 273 0 272 0 43 -136 c59 -189 52 -184
246 -184 l153 0 -109 288 c-60 158 -182 481 -272 717 l-163 430 -170 3 -170 2
-269 -711z m541 99 l92 -278 -195 0 c-152 0 -194 3 -191 13 3 6 44 131 92 277
110 333 97 298 104 280 3 -8 47 -140 98 -292z"/>
<path d="M18600 2240 l0 -720 145 0 145 0 2 451 3 450 333 -430 c183 -236 344
-439 359 -451 22 -17 40 -20 139 -20 l114 0 0 720 0 720 -145 0 -146 0 3 -455
c2 -250 2 -455 1 -455 -1 0 -153 196 -338 435 -186 239 -348 444 -362 455 -22
17 -41 20 -139 20 l-114 0 0 -720z"/>
<path d="M22590 2830 l0 -130 198 -2 197 -3 3 -587 2 -588 160 0 160 0 2 588
3 587 198 3 197 2 0 130 0 130 -560 0 -560 0 0 -130z"/>
<path d="M23880 2240 l0 -720 165 0 165 0 0 720 0 720 -165 0 -165 0 0 -720z"/>
<path d="M27830 2241 l0 -721 165 0 165 0 0 239 0 238 168 5 c144 5 178 9 247
31 218 71 325 222 325 457 0 221 -101 362 -312 438 -72 26 -76 26 -415 30
l-343 3 0 -720z m602 459 c49 -14 94 -53 119 -103 17 -33 20 -54 17 -127 -3
-75 -7 -92 -31 -129 -44 -66 -94 -84 -249 -89 l-128 -4 0 231 0 231 118 0 c64
0 134 -5 154 -10z"/>
<path d="M30630 2241 l0 -721 165 0 165 0 0 265 0 265 63 0 c38 0 71 -6 83
-14 12 -8 79 -119 150 -247 95 -170 137 -237 159 -250 26 -17 52 -19 198 -19
92 0 167 3 167 6 0 4 -68 120 -151 260 -107 179 -164 265 -197 295 -25 24 -41
44 -34 47 6 2 38 21 71 42 118 76 180 190 189 342 11 207 -87 347 -292 415
-80 27 -84 27 -408 31 l-328 3 0 -720z m573 458 c47 -13 106 -63 123 -106 20
-46 17 -140 -5 -188 -40 -86 -101 -116 -253 -123 l-108 -5 0 217 0 216 103 0
c56 0 119 -5 140 -11z"/>
</g>
</svg>
