<?xml version="1.0" encoding="UTF-8"?>
<svg id="Capa_2" data-name="Capa 2" xmlns="http://www.w3.org/2000/svg" viewBox="0 0 944.2 208.76">
  <defs>
    <style>
      .cls-1 {
        fill: #01155a;
      }

      .cls-2 {
        fill: #4a4a49;
      }

      .cls-3 {
        fill: #00b7fa;
      }
    </style>
  </defs>
  <g id="Capa_1-2" data-name="Capa 1">
    <g>
      <g>
        <g>
          <path class="cls-1" d="M304.59,46.63v83.44h-23.51V46.63h-34.2v-18.98h91.9v18.98h-34.2Z"/>
          <path class="cls-1" d="M335.69,78.86c0-31.03,23.51-53.62,55.87-53.62s55.87,22.59,55.87,53.62-23.51,53.62-55.87,53.62-55.87-22.59-55.87-53.62ZM391.57,113.5c18.62,0,32.06-14.61,32.06-34.64s-13.43-34.64-32.06-34.64-32.06,14.61-32.06,34.64,13.43,34.64,32.06,34.64Z"/>
          <path class="cls-1" d="M544.12,61.09c0,16.72-11.76,29.52-29.01,32.68l3.05,3.77c5.65,7.23,12.67,12.95,19.24,12.95,1.37,0,2.14-.6,3.05-1.51h2.75v21.09c-20.3,0-30.53-1.66-45.19-20.33l-18.32-23.34v43.68h-23.51V27.65h47.63c23.36,0,40.3,14.16,40.3,33.44h0ZM505.34,75.55c8.85,0,15.27-6.02,15.27-14.46s-7.02-14.46-16.79-14.46h-24.12v1.51c0,12.95,10.38,27.41,25.65,27.41Z"/>
          <path class="cls-1" d="M645.68,78.86c0,29.67-23.51,51.21-55.87,51.21h-37.25V27.65h37.25c32.36,0,55.87,21.54,55.87,51.21ZM589.81,111.09c18.62,0,32.06-13.56,32.06-32.23s-13.43-32.23-32.06-32.23h-13.74v64.46h13.74Z"/>
          <path class="cls-1" d="M652.74,78.86c0-31.03,23.51-53.62,55.87-53.62s55.87,22.59,55.87,53.62-23.51,53.62-55.87,53.62-55.87-22.59-55.87-53.62ZM707.45,113.5c18.62,0,32.06-14.61,32.06-34.64s-13.43-34.64-32.06-34.64-32.06,14.61-32.06,34.64,13.43,34.64,32.06,34.64Z"/>
          <path class="cls-1" d="M755.58,28.23h26.56l23.97,47.9,23.97-47.9h26.56l-51.29,102.42h-26.56l14.05-28.01-37.25-74.4Z"/>
          <path class="cls-1" d="M893.82,27.65l50.38,102.42h-25.95c-2.14-4.07-7.02-9.79-14.66-9.79-11.91,0-24.58,12.2-43.51,12.2s-31.3-18.98-12.52-54.67l26.41-50.16h19.85ZM903.44,99.8l-19.54-39.46-11.6,22.59c-5.95,11.6-14.5,29.07-3.51,29.07,8.85,0,21.98-10.69,34.65-12.2h0Z"/>
        </g>
        <g>
          <path class="cls-2" d="M307.49,163.16c0,2.14-.36,4.11-1.08,5.92-.72,1.81-1.74,3.37-3.05,4.69-1.31,1.32-2.89,2.35-4.74,3.09-1.85.74-3.9,1.11-6.15,1.11h-11.25v-29.6h11.25c2.25,0,4.3.37,6.15,1.12,1.85.74,3.43,1.77,4.74,3.09,1.31,1.31,2.33,2.88,3.05,4.68.72,1.81,1.08,3.77,1.08,5.9ZM300.62,163.16c0-1.46-.19-2.78-.56-3.96-.37-1.18-.9-2.18-1.6-3-.7-.82-1.55-1.45-2.55-1.89-1.01-.44-2.15-.66-3.44-.66h-4.49v19.04h4.49c1.28,0,2.43-.22,3.44-.66s1.86-1.07,2.55-1.89c.7-.82,1.23-1.82,1.6-3,.37-1.18.56-2.51.56-3.98Z"/>
          <path class="cls-2" d="M318.07,177.97h-6.76v-29.6h6.76v29.6Z"/>
          <path class="cls-2" d="M350.38,177.97h-5.21c-.58,0-1.06-.14-1.44-.42-.38-.28-.64-.63-.79-1.07l-1.71-5.16h-11.01l-1.71,5.16c-.13.38-.39.72-.77,1.03-.38.31-.85.46-1.41.46h-5.25l11.21-29.6h6.88l11.21,29.6ZM331.78,166.65h7.91l-2.66-8.11c-.17-.51-.37-1.12-.61-1.82-.23-.7-.46-1.45-.69-2.26-.21.83-.43,1.59-.66,2.3-.23.7-.44,1.31-.64,1.83l-2.66,8.06Z"/>
          <path class="cls-2" d="M365.17,173.01c.93,0,1.75-.08,2.46-.24.72-.16,1.39-.38,2.03-.65v-4.49h-2.86c-.42,0-.76-.12-.99-.35s-.36-.52-.36-.87v-3.78h10.29v12.49c-.74.55-1.51,1.03-2.31,1.43-.8.4-1.66.73-2.56.99s-1.87.45-2.9.57c-1.03.12-2.13.18-3.31.18-2.12,0-4.08-.38-5.88-1.15-1.8-.77-3.36-1.82-4.68-3.17-1.32-1.35-2.35-2.95-3.1-4.79-.75-1.85-1.12-3.86-1.12-6.02s.36-4.24,1.07-6.08c.72-1.85,1.74-3.44,3.07-4.78,1.33-1.34,2.94-2.38,4.83-3.13,1.89-.74,4-1.12,6.33-1.12,1.21,0,2.34.1,3.4.31,1.06.2,2.04.48,2.93.83.89.35,1.71.77,2.45,1.26.74.49,1.4,1.01,1.99,1.58l-1.95,3.03c-.19.28-.41.51-.67.67-.26.16-.54.24-.84.24-.4,0-.81-.14-1.23-.41-.53-.33-1.03-.61-1.5-.84-.47-.24-.95-.43-1.44-.58-.49-.15-1.01-.26-1.55-.32-.54-.07-1.15-.1-1.83-.1-1.26,0-2.39.23-3.4.68-1.01.45-1.87,1.09-2.57,1.92-.71.83-1.26,1.82-1.64,2.98-.38,1.16-.58,2.45-.58,3.87,0,1.57.21,2.97.64,4.19.42,1.22,1.01,2.25,1.76,3.09.75.84,1.64,1.48,2.66,1.92,1.03.44,2.15.66,3.37.66Z"/>
          <path class="cls-2" d="M384.11,148.41c.2.03.38.08.54.15s.31.18.46.31c.15.14.31.32.5.55l13.75,17.78c-.05-.57-.09-1.12-.12-1.66-.03-.53-.04-1.04-.04-1.51v-15.66h5.92v29.6h-3.5c-.52,0-.95-.08-1.31-.24s-.7-.46-1.03-.89l-13.65-17.63c.04.52.07,1.02.1,1.51.03.5.04.96.04,1.39v15.87h-5.92v-29.6h3.54c.29,0,.54.01.74.04Z"/>
          <path class="cls-2" d="M438.46,163.16c0,2.14-.36,4.13-1.08,5.97-.72,1.84-1.74,3.44-3.05,4.8-1.31,1.36-2.89,2.43-4.74,3.2-1.85.77-3.9,1.16-6.15,1.16s-4.31-.39-6.16-1.16c-1.86-.77-3.44-1.84-4.76-3.2s-2.34-2.96-3.06-4.8c-.72-1.84-1.08-3.83-1.08-5.97s.36-4.13,1.08-5.97c.72-1.84,1.74-3.44,3.06-4.79,1.32-1.35,2.9-2.42,4.76-3.19,1.85-.77,3.91-1.16,6.16-1.16s4.3.39,6.15,1.17c1.85.78,3.43,1.85,4.74,3.2,1.31,1.35,2.33,2.95,3.05,4.79.72,1.84,1.08,3.82,1.08,5.95ZM431.58,163.16c0-1.46-.19-2.78-.56-3.95s-.9-2.16-1.6-2.98-1.55-1.44-2.55-1.87c-1.01-.43-2.15-.65-3.44-.65s-2.45.22-3.47.65c-1.01.43-1.87,1.06-2.56,1.87s-1.23,1.8-1.6,2.98-.56,2.49-.56,3.95.19,2.8.56,3.97.9,2.16,1.6,2.98c.7.81,1.55,1.43,2.56,1.86,1.01.43,2.17.64,3.47.64s2.43-.21,3.44-.64,1.86-1.05,2.55-1.86c.7-.81,1.23-1.81,1.6-2.98.37-1.17.56-2.5.56-3.97ZM431.9,141.44l-5.86,4.35c-.34.27-.67.45-.96.54-.3.09-.67.13-1.12.13h-4.89l3.6-4c.17-.2.34-.37.51-.5.17-.13.34-.23.53-.31.19-.08.39-.14.62-.16.23-.03.49-.04.79-.04h6.8Z"/>
          <path class="cls-2" d="M457.82,154.38c-.2.32-.41.57-.63.73-.22.16-.5.24-.84.24-.3,0-.63-.1-.98-.29s-.75-.42-1.19-.66-.95-.46-1.52-.66-1.22-.29-1.95-.29c-1.26,0-2.2.27-2.81.82-.62.55-.92,1.29-.92,2.22,0,.6.19,1.09.56,1.48.37.39.86.73,1.46,1.02.6.28,1.29.54,2.07.78.78.24,1.57.5,2.38.79.81.29,1.6.63,2.37,1.03.78.39,1.46.89,2.07,1.5.6.61,1.09,1.35,1.46,2.22.37.87.56,1.93.56,3.16,0,1.37-.23,2.65-.7,3.84-.46,1.19-1.14,2.23-2.02,3.12-.88.89-1.97,1.59-3.26,2.09-1.29.51-2.76.76-4.4.76-.9,0-1.82-.09-2.75-.28s-1.84-.46-2.71-.8c-.87-.35-1.7-.75-2.46-1.23-.77-.47-1.44-1-2.01-1.58l1.99-3.21c.15-.24.35-.44.62-.59.26-.15.55-.22.85-.22.4,0,.8.13,1.2.39.4.26.86.54,1.37.85.51.31,1.1.6,1.76.85.66.26,1.44.39,2.35.39,1.22,0,2.17-.27,2.84-.82.68-.55,1.01-1.42,1.01-2.61,0-.69-.19-1.25-.56-1.69-.37-.43-.86-.79-1.46-1.08-.6-.28-1.29-.53-2.06-.75-.77-.22-1.56-.46-2.36-.72s-1.6-.59-2.36-.98c-.77-.39-1.45-.89-2.06-1.52-.6-.63-1.09-1.42-1.46-2.36-.37-.94-.56-2.1-.56-3.48,0-1.11.22-2.19.66-3.25.44-1.06,1.08-2,1.93-2.82.85-.83,1.89-1.49,3.12-1.98,1.23-.49,2.64-.74,4.23-.74.89,0,1.75.07,2.59.21.84.14,1.64.35,2.39.63.75.28,1.46.61,2.12,1,.66.39,1.24.82,1.76,1.31l-1.67,3.19Z"/>
          <path class="cls-2" d="M484.25,148.37v5.45h-8.15v24.15h-6.72v-24.15h-8.15v-5.45h23.01Z"/>
          <path class="cls-2" d="M494.38,177.97h-6.76v-29.6h6.76v29.6Z"/>
          <path class="cls-2" d="M519.21,170.31c.16,0,.32.03.48.09.16.06.31.17.46.31l2.66,2.87c-1.17,1.56-2.63,2.73-4.38,3.52-1.76.79-3.83,1.19-6.23,1.19-2.2,0-4.17-.38-5.91-1.15-1.74-.77-3.22-1.82-4.43-3.17-1.21-1.35-2.14-2.95-2.79-4.79-.65-1.85-.97-3.86-.97-6.02s.37-4.24,1.11-6.08c.74-1.85,1.78-3.44,3.11-4.78,1.33-1.34,2.92-2.38,4.78-3.13,1.85-.74,3.9-1.12,6.14-1.12,1.09,0,2.11.1,3.07.3.96.2,1.86.47,2.69.81.83.35,1.6.76,2.31,1.24.7.48,1.32,1.01,1.87,1.59l-2.27,3.11c-.15.19-.32.36-.52.52s-.48.23-.84.23c-.24,0-.46-.05-.68-.16-.21-.11-.44-.24-.68-.4-.24-.16-.5-.33-.79-.51-.28-.18-.62-.35-1.01-.51-.39-.16-.85-.29-1.37-.4-.52-.11-1.14-.16-1.84-.16-1.22,0-2.33.22-3.34.66-1.01.44-1.87,1.07-2.59,1.89-.72.82-1.29,1.81-1.69,2.98-.4,1.16-.61,2.47-.61,3.92s.2,2.87.61,4.04c.4,1.18.95,2.17,1.65,2.98.7.81,1.51,1.42,2.43,1.84.93.42,1.92.63,2.98.63.61,0,1.17-.03,1.67-.09.5-.06.97-.17,1.4-.32.43-.15.84-.34,1.23-.58.39-.24.78-.53,1.18-.88.16-.14.33-.25.52-.34.19-.09.38-.13.58-.13Z"/>
          <path class="cls-2" d="M554.44,163.16c0,2.14-.36,4.13-1.08,5.97-.72,1.84-1.74,3.44-3.05,4.8-1.31,1.36-2.89,2.43-4.74,3.2-1.85.77-3.9,1.16-6.15,1.16s-4.31-.39-6.16-1.16c-1.86-.77-3.44-1.84-4.76-3.2s-2.34-2.96-3.06-4.8c-.72-1.84-1.08-3.83-1.08-5.97s.36-4.13,1.08-5.97c.72-1.84,1.74-3.44,3.06-4.79,1.32-1.35,2.9-2.42,4.76-3.19,1.85-.77,3.91-1.16,6.16-1.16s4.3.39,6.15,1.17c1.85.78,3.43,1.85,4.74,3.2,1.31,1.35,2.33,2.95,3.05,4.79.72,1.84,1.08,3.82,1.08,5.95ZM547.57,163.16c0-1.46-.19-2.78-.56-3.95-.37-1.17-.9-2.16-1.6-2.98s-1.55-1.44-2.55-1.87c-1.01-.43-2.15-.65-3.44-.65s-2.45.22-3.47.65c-1.01.43-1.87,1.06-2.56,1.87-.7.81-1.23,1.8-1.6,2.98-.37,1.17-.56,2.49-.56,3.95s.19,2.8.56,3.97c.37,1.17.9,2.16,1.6,2.98s1.55,1.43,2.56,1.86c1.01.43,2.17.64,3.47.64s2.43-.21,3.44-.64,1.86-1.05,2.55-1.86c.7-.81,1.23-1.81,1.6-2.98.37-1.17.56-2.5.56-3.97Z"/>
          <path class="cls-2" d="M575.14,168.07v9.89h-6.72v-29.6h10.22c2.04,0,3.79.25,5.26.74,1.46.49,2.67,1.17,3.62,2.04s1.65,1.89,2.1,3.07c.45,1.18.68,2.45.68,3.82,0,1.48-.23,2.83-.7,4.06-.46,1.23-1.17,2.29-2.13,3.17-.95.88-2.16,1.57-3.63,2.06-1.46.5-3.2.74-5.2.74h-3.5ZM575.14,162.89h3.5c1.75,0,3.01-.43,3.78-1.28.77-.85,1.15-2.04,1.15-3.57,0-.68-.1-1.29-.3-1.85-.2-.55-.5-1.03-.9-1.43-.4-.4-.91-.71-1.53-.92-.62-.22-1.35-.33-2.2-.33h-3.5v9.39Z"/>
          <path class="cls-2" d="M622.36,163.16c0,2.14-.36,4.13-1.08,5.97-.72,1.84-1.74,3.44-3.05,4.8-1.31,1.36-2.89,2.43-4.74,3.2-1.85.77-3.9,1.16-6.15,1.16s-4.31-.39-6.16-1.16c-1.86-.77-3.44-1.84-4.76-3.2s-2.34-2.96-3.06-4.8c-.72-1.84-1.08-3.83-1.08-5.97s.36-4.13,1.08-5.97c.72-1.84,1.74-3.44,3.06-4.79,1.32-1.35,2.9-2.42,4.76-3.19,1.85-.77,3.91-1.16,6.16-1.16s4.3.39,6.15,1.17c1.85.78,3.43,1.85,4.74,3.2,1.31,1.35,2.33,2.95,3.05,4.79.72,1.84,1.08,3.82,1.08,5.95ZM615.48,163.16c0-1.46-.19-2.78-.56-3.95-.37-1.17-.9-2.16-1.6-2.98-.7-.81-1.55-1.44-2.55-1.87-1.01-.43-2.15-.65-3.44-.65s-2.45.22-3.47.65c-1.01.43-1.87,1.06-2.56,1.87s-1.23,1.8-1.6,2.98-.56,2.49-.56,3.95.19,2.8.56,3.97.9,2.16,1.6,2.98c.7.81,1.55,1.43,2.56,1.86,1.01.43,2.17.64,3.47.64s2.43-.21,3.44-.64,1.86-1.05,2.55-1.86,1.23-1.81,1.6-2.98c.37-1.17.56-2.5.56-3.97Z"/>
          <path class="cls-2" d="M632.29,167.02v10.95h-6.72v-29.6h9.42c2.09,0,3.88.22,5.36.66,1.48.44,2.68,1.05,3.62,1.84.93.79,1.61,1.71,2.04,2.78.42,1.07.64,2.23.64,3.49,0,.96-.13,1.87-.38,2.72-.25.85-.63,1.64-1.12,2.37s-1.11,1.37-1.83,1.94-1.55,1.04-2.49,1.4c.45.23.87.52,1.26.85s.73.75,1.02,1.24l6.16,10.3h-6.08c-1.13,0-1.93-.43-2.42-1.3l-4.81-8.59c-.21-.38-.46-.65-.75-.81s-.69-.24-1.2-.24h-1.71ZM632.29,162.28h2.7c.91,0,1.69-.12,2.33-.36s1.17-.57,1.58-.99c.41-.42.71-.91.89-1.47.19-.56.28-1.17.28-1.82,0-1.3-.41-2.32-1.24-3.05-.83-.73-2.11-1.1-3.85-1.1h-2.7v8.78Z"/>
          <path class="cls-2" d="M672.35,172.27c.9,0,1.71-.15,2.41-.46.71-.31,1.31-.74,1.8-1.31.49-.57.86-1.26,1.12-2.08.26-.82.39-1.75.39-2.79v-17.53h6.72v17.53c0,1.82-.29,3.48-.86,5-.58,1.52-1.4,2.82-2.47,3.92-1.07,1.1-2.38,1.95-3.92,2.56s-3.27.91-5.19.91-3.67-.3-5.21-.91c-1.54-.61-2.84-1.46-3.92-2.56-1.07-1.1-1.89-2.4-2.46-3.92-.57-1.52-.85-3.18-.85-5v-17.53h6.72v17.51c0,1.04.13,1.97.39,2.79.26.82.63,1.52,1.12,2.09.49.57,1.09,1.01,1.8,1.32s1.51.46,2.41.46Z"/>
          <path class="cls-2" d="M695.88,172.21h10.73v5.49h-17.45v-29.6h6.72v24.11Z"/>
          <path class="cls-2" d="M727.24,148.1v5.45h-8.15v24.15h-6.72v-24.15h-8.15v-5.45h23.01Z"/>
          <path class="cls-2" d="M736.74,166.75v10.95h-6.72v-29.6h9.42c2.09,0,3.88.22,5.36.66,1.48.44,2.68,1.05,3.62,1.84.93.79,1.61,1.71,2.04,2.78.42,1.07.64,2.23.64,3.49,0,.96-.13,1.87-.38,2.72-.25.85-.63,1.64-1.12,2.37s-1.11,1.37-1.83,1.94c-.72.57-1.55,1.04-2.49,1.4.45.23.87.52,1.26.85s.73.75,1.02,1.24l6.16,10.3h-6.08c-1.13,0-1.93-.43-2.42-1.3l-4.81-8.59c-.21-.38-.46-.65-.75-.81s-.69-.24-1.2-.24h-1.71ZM736.74,162.01h2.7c.91,0,1.69-.12,2.33-.36s1.17-.57,1.58-.99c.41-.42.71-.91.89-1.47.19-.56.28-1.17.28-1.82,0-1.3-.41-2.32-1.24-3.05-.83-.73-2.11-1.1-3.85-1.1h-2.7v8.78Z"/>
          <path class="cls-2" d="M783.41,177.7h-5.21c-.58,0-1.06-.14-1.44-.42-.38-.28-.64-.63-.79-1.07l-1.71-5.16h-11.01l-1.71,5.16c-.13.38-.39.72-.77,1.03-.38.31-.85.46-1.41.46h-5.25l11.21-29.6h6.88l11.21,29.6ZM764.8,166.38h7.91l-2.66-8.11c-.17-.51-.37-1.12-.61-1.82-.23-.7-.46-1.45-.69-2.26-.21.83-.43,1.59-.66,2.3-.23.7-.44,1.31-.64,1.83l-2.66,8.06Z"/>
          <path class="cls-2" d="M801.89,154.11c-.2.32-.41.57-.63.73-.22.16-.5.24-.84.24-.3,0-.63-.1-.98-.29s-.75-.42-1.19-.66-.95-.46-1.52-.66-1.22-.29-1.95-.29c-1.26,0-2.2.27-2.81.82-.62.55-.92,1.29-.92,2.22,0,.6.19,1.09.56,1.48.37.39.86.73,1.46,1.02.6.28,1.29.54,2.07.78.78.24,1.57.5,2.38.79.81.29,1.6.63,2.37,1.03.78.39,1.46.89,2.07,1.5.6.61,1.09,1.35,1.46,2.22.37.87.56,1.93.56,3.16,0,1.37-.23,2.65-.7,3.84-.46,1.19-1.14,2.23-2.02,3.12-.88.89-1.97,1.59-3.26,2.09-1.29.51-2.76.76-4.4.76-.9,0-1.82-.09-2.75-.28s-1.84-.46-2.71-.8c-.87-.35-1.7-.75-2.46-1.23-.77-.47-1.44-1-2.01-1.58l1.99-3.21c.15-.24.35-.44.62-.59.26-.15.55-.22.85-.22.4,0,.8.13,1.2.39.4.26.86.54,1.37.85.51.31,1.1.6,1.76.85.66.26,1.44.39,2.35.39,1.22,0,2.17-.27,2.84-.82.68-.55,1.01-1.42,1.01-2.61,0-.69-.19-1.25-.56-1.69-.37-.43-.86-.79-1.46-1.08-.6-.28-1.29-.53-2.06-.75-.77-.22-1.56-.46-2.36-.72-.81-.26-1.6-.59-2.36-.98-.77-.39-1.45-.89-2.06-1.52-.6-.63-1.09-1.42-1.46-2.36-.37-.94-.56-2.1-.56-3.48,0-1.11.22-2.19.66-3.25s1.08-2,1.93-2.82c.85-.83,1.89-1.49,3.12-1.98s2.64-.74,4.23-.74c.89,0,1.75.07,2.59.21.84.14,1.64.35,2.39.63.75.28,1.46.61,2.12,1,.66.39,1.24.82,1.76,1.31l-1.67,3.19Z"/>
          <path class="cls-2" d="M835.87,162.89c0,2.14-.36,4.13-1.08,5.97-.72,1.84-1.74,3.44-3.05,4.8-1.31,1.36-2.89,2.43-4.74,3.2-1.85.77-3.9,1.16-6.15,1.16s-4.31-.39-6.16-1.16c-1.86-.77-3.44-1.84-4.76-3.2-1.32-1.36-2.34-2.96-3.06-4.8-.72-1.84-1.08-3.83-1.08-5.97s.36-4.13,1.08-5.97c.72-1.84,1.74-3.44,3.06-4.79,1.32-1.35,2.9-2.42,4.76-3.19,1.85-.77,3.91-1.16,6.16-1.16s4.3.39,6.15,1.17c1.85.78,3.43,1.85,4.74,3.2,1.31,1.35,2.33,2.95,3.05,4.79.72,1.84,1.08,3.82,1.08,5.95ZM829,162.89c0-1.46-.19-2.78-.56-3.95-.37-1.17-.9-2.16-1.6-2.98-.7-.81-1.55-1.44-2.55-1.87-1.01-.43-2.15-.65-3.44-.65s-2.45.22-3.47.65c-1.01.43-1.87,1.06-2.56,1.87s-1.23,1.8-1.6,2.98c-.37,1.17-.56,2.49-.56,3.95s.19,2.8.56,3.97.9,2.16,1.6,2.98c.7.81,1.55,1.43,2.56,1.86,1.01.43,2.17.64,3.47.64s2.43-.21,3.44-.64,1.86-1.05,2.55-1.86c.7-.81,1.23-1.81,1.6-2.98.37-1.17.56-2.5.56-3.97Z"/>
          <path class="cls-2" d="M843.37,148.14c.2.03.38.08.54.15s.31.18.46.31c.15.14.31.32.5.55l13.75,17.78c-.05-.57-.09-1.12-.12-1.66-.03-.53-.04-1.04-.04-1.51v-15.66h5.92v29.6h-3.5c-.52,0-.95-.08-1.31-.24s-.7-.46-1.03-.89l-13.65-17.63c.04.52.07,1.02.1,1.51.03.5.04.96.04,1.39v15.87h-5.92v-29.6h3.54c.29,0,.54.01.74.04Z"/>
          <path class="cls-2" d="M876.49,177.7h-6.76v-29.6h6.76v29.6Z"/>
          <path class="cls-2" d="M908.13,162.89c0,2.14-.36,4.11-1.08,5.92-.72,1.81-1.74,3.37-3.05,4.69-1.31,1.32-2.89,2.35-4.74,3.09-1.85.74-3.9,1.11-6.15,1.11h-11.25v-29.6h11.25c2.25,0,4.3.37,6.15,1.12,1.85.74,3.43,1.77,4.74,3.09,1.31,1.31,2.33,2.88,3.05,4.68.72,1.81,1.08,3.77,1.08,5.9ZM901.26,162.89c0-1.46-.19-2.78-.56-3.96-.37-1.18-.9-2.18-1.6-3-.7-.82-1.55-1.45-2.55-1.89-1.01-.44-2.15-.66-3.44-.66h-4.49v19.04h4.49c1.28,0,2.43-.22,3.44-.66s1.86-1.07,2.55-1.89c.7-.82,1.23-1.82,1.6-3,.37-1.18.56-2.51.56-3.98Z"/>
          <path class="cls-2" d="M939.93,162.89c0,2.14-.36,4.13-1.08,5.97-.72,1.84-1.74,3.44-3.05,4.8-1.31,1.36-2.89,2.43-4.74,3.2-1.85.77-3.9,1.16-6.15,1.16s-4.31-.39-6.16-1.16c-1.86-.77-3.44-1.84-4.76-3.2-1.32-1.36-2.34-2.96-3.06-4.8-.72-1.84-1.08-3.83-1.08-5.97s.36-4.13,1.08-5.97c.72-1.84,1.74-3.44,3.06-4.79,1.32-1.35,2.9-2.42,4.76-3.19,1.85-.77,3.91-1.16,6.16-1.16s4.3.39,6.15,1.17c1.85.78,3.43,1.85,4.74,3.2,1.31,1.35,2.33,2.95,3.05,4.79.72,1.84,1.08,3.82,1.08,5.95ZM933.05,162.89c0-1.46-.19-2.78-.56-3.95-.37-1.17-.9-2.16-1.6-2.98s-1.55-1.44-2.55-1.87c-1.01-.43-2.15-.65-3.44-.65s-2.45.22-3.47.65c-1.01.43-1.87,1.06-2.56,1.87-.7.81-1.23,1.8-1.6,2.98-.37,1.17-.56,2.49-.56,3.95s.19,2.8.56,3.97c.37,1.17.9,2.16,1.6,2.98s1.55,1.43,2.56,1.86c1.01.43,2.17.64,3.47.64s2.43-.21,3.44-.64,1.86-1.05,2.55-1.86c.7-.81,1.23-1.81,1.6-2.98.37-1.17.56-2.5.56-3.97Z"/>
        </g>
      </g>
      <g>
        <path class="cls-1" d="M68.53,82.18c0-14.49-13.08-27.4-27.39-27.4H0l.18,36.54c0,47.61,27.72,88.74,67.88,108.07.16.08.33.16.49.24l-.03-117.44Z"/>
        <path class="cls-1" d="M136.97,82.18c0-14.49,13.08-27.4,27.39-27.4h41.14l-.18,36.54c0,47.61-27.72,88.74-67.88,108.07-.16.08-.33.16-.49.24l.03-117.44Z"/>
        <path class="cls-1" d="M77.01,42.85c-.47,1.01-.92,2.03-1.36,3.06-1.6,3.79-2.96,7.16-4.07,11.08-8.14-9.72-20.36-15.91-34-15.91H.06v-13.69h37.52c14.74,0,28.64,5.57,39.43,15.47Z"/>
        <path class="cls-1" d="M123.31,204.61c-4.43,1.48-9.06,2.72-13.71,3.68v-124.61c.05-6.67,1.35-13.09,3.53-19.03,0-.02.02-.05.03-.07,1.17-3.03,2.6-5.96,4.27-8.77,2.46-4.13,5.46-7.99,8.95-11.48,8.23-8.23,18.48-13.7,29.64-15.94,3.34-.62,6.77-.94,10.28-.94h39.19v13.62h-37.83c-24.45,0-44.35,20.1-44.35,44.55v118.99Z"/>
        <path class="cls-3" d="M82.22,84.34c0-10.11,1.68-19.95,5.15-29.31.45-1.22.93-2.43,1.44-3.63,1.5-3.54,3.22-6.95,5.16-10.22,2.48-4.18,5.32-8.14,8.5-11.85,1.43-1.66,2.92-3.28,4.49-4.84,7.77-7.78,16.83-13.88,26.92-18.14C144.32,1.91,155.3,0,166.73,0h38.74s0,13.69,0,13.69h-38.67c-19.42,0-37,7.9-49.79,20.63-2.16,2.15-4.18,4.43-6.04,6.84-3.35,4.32-6.21,9.05-8.49,14.08-3.99,8.79-6.51,18.55-6.56,28.8v124.71c-4.79-.97-9.16-2.23-13.72-3.75l.02-120.68Z"/>
        <path class="cls-1" d="M92.51,19.57c-3.11,3.55-5.95,7.31-8.5,11.25-12.35-10.57-28.37-17.13-45.86-17.13H.06V0h38.09c11.43,0,22.52,2.07,32.97,6.48,7.78,3.29,14.96,7.68,21.4,13.09Z"/>
      </g>
    </g>
  </g>
</svg>